<?xml version="1.0" encoding="utf-8"?>
<!-- Generator: Adobe Illustrator 17.1.0, SVG Export Plug-In . SVG Version: 6.00 Build 0)  -->
<!DOCTYPE svg PUBLIC "-//W3C//DTD SVG 1.1//EN" "http://www.w3.org/Graphics/SVG/1.1/DTD/svg11.dtd">
<svg version="1.1" id="Layer_1" xmlns="http://www.w3.org/2000/svg" xmlns:xlink="http://www.w3.org/1999/xlink" x="0px" y="0px"
	 viewBox="0 0 130 130" enable-background="new 0 0 130 130" xml:space="preserve">
<g>
	<path fill="#f16665" d="M53.689,45.126c0,2.658-1.962,4.81-5.191,4.81c-3.037,0-4.999-2.152-4.999-4.81
		c0-2.722,2.025-4.811,5.126-4.811C51.727,40.315,53.627,42.404,53.689,45.126z M43.753,84.685V53.734h9.621v30.951H43.753z"/>
	<path fill="#f16665" d="M59.131,63.607c0-3.86-0.126-7.088-0.252-9.874h8.354l0.444,4.304h0.189
		c1.266-2.026,4.367-5.001,9.558-5.001c6.329,0,11.076,4.241,11.076,13.355v18.293h-9.621V67.532c0-3.988-1.393-6.708-4.874-6.708
		c-2.658,0-4.239,1.835-4.936,3.607c-0.254,0.632-0.317,1.519-0.317,2.405v17.849h-9.621V63.607z"/>
</g>
</svg>
