<?xml version="1.0" encoding="utf-8"?>
<!-- Generator: Adobe Illustrator 17.1.0, SVG Export Plug-In . SVG Version: 6.00 Build 0)  -->
<!DOCTYPE svg PUBLIC "-//W3C//DTD SVG 1.1//EN" "http://www.w3.org/Graphics/SVG/1.1/DTD/svg11.dtd">
<svg version="1.1" id="Layer_1" xmlns="http://www.w3.org/2000/svg" xmlns:xlink="http://www.w3.org/1999/xlink" x="0px" y="0px"
	 viewBox="0 0 130 130" enable-background="new 0 0 130 130" xml:space="preserve">
<path fill="#f16665" d="M65,17c-26.51,0-48,21.49-48,48c0,26.511,21.49,48,48,48c26.511,0,48-21.489,48-48
	C113,38.49,91.511,17,65,17z M53.253,84.893H43.53V53.615h9.723V84.893z M48.327,49.777c-3.07,0-5.053-2.174-5.053-4.859
	c0-2.751,2.047-4.861,5.18-4.861c3.136,0,5.055,2.11,5.117,4.861C53.571,47.603,51.589,49.777,48.327,49.777z M88.748,84.893h-9.722
	V67.559c0-4.029-1.408-6.779-4.925-6.779c-2.687,0-4.284,1.855-4.988,3.646c-0.256,0.639-0.322,1.535-0.322,2.43v18.037h-9.72
	V63.594c0-3.901-0.127-7.163-0.256-9.978h8.442l0.448,4.35h0.191c1.279-2.047,4.413-5.053,9.659-5.053
	c6.396,0,11.191,4.285,11.191,13.495V84.893z"/>
<path fill="#f16665" d="M65,17c-26.51,0-48,21.49-48,48c0,26.511,21.49,48,48,48c26.511,0,48-21.489,48-48
	C113,38.49,91.511,17,65,17z M53.253,84.893H43.53V53.615h9.723V84.893z M48.327,49.777c-3.07,0-5.053-2.174-5.053-4.859
	c0-2.751,2.047-4.861,5.18-4.861c3.136,0,5.055,2.11,5.117,4.861C53.571,47.604,51.589,49.777,48.327,49.777z M88.748,84.893h-9.722
	V67.559c0-4.029-1.408-6.779-4.925-6.779c-2.687,0-4.284,1.855-4.988,3.646c-0.256,0.639-0.322,1.535-0.322,2.43v18.037h-9.72
	V63.594c0-3.901-0.127-7.163-0.256-9.979h8.442l0.448,4.35h0.191c1.279-2.047,4.413-5.053,9.659-5.053
	c6.396,0,11.191,4.285,11.191,13.495V84.893z"/>
</svg>
